<svg id="visual" viewBox="0 0 1024 540" width="1024" height="540" xmlns="http://www.w3.org/2000/svg" xmlns:xlink="http://www.w3.org/1999/xlink" version="1.1"><rect x="0" y="0" width="1024" height="540" fill="#FFFFFF"></rect><path d="M0 393L146 365L293 363L439 335L585 340L731 366L878 393L1024 402L1024 541L878 541L731 541L585 541L439 541L293 541L146 541L0 541Z" fill="#bbe0ff"></path><path d="M0 357L146 376L293 423L439 410L585 356L731 378L878 356L1024 395L1024 541L878 541L731 541L585 541L439 541L293 541L146 541L0 541Z" fill="#a0d3ff"></path><path d="M0 397L146 436L293 458L439 419L585 436L731 409L878 413L1024 419L1024 541L878 541L731 541L585 541L439 541L293 541L146 541L0 541Z" fill="#85c6ff"></path><path d="M0 479L146 441L293 457L439 438L585 482L731 479L878 472L1024 464L1024 541L878 541L731 541L585 541L439 541L293 541L146 541L0 541Z" fill="#67b9ff"></path><path d="M0 502L146 480L293 497L439 516L585 503L731 496L878 506L1024 488L1024 541L878 541L731 541L585 541L439 541L293 541L146 541L0 541Z" fill="#44abff"></path></svg>